<svg width="32" height="37" viewBox="0 0 32 37" fill="none" xmlns="http://www.w3.org/2000/svg">
<path d="M32 5.60121L16 0L0 5.60121V18.5C0 25.1046 4.0544 29.7216 7.8336 32.5878C10.1153 34.3009 12.618 35.6978 15.2736 36.7407C15.4549 36.809 15.6373 36.8741 15.8208 36.936L16 37L16.1824 36.936C16.5322 36.8144 16.879 36.6842 17.2224 36.5455C19.6956 35.5263 22.029 34.1964 24.1664 32.5878C27.9472 29.7216 32 25.1046 32 18.5V5.60121ZM14.4016 23.9652L7.616 17.1749L9.8784 14.9104L14.4032 19.4378L23.4544 10.3846L25.7184 12.6475L14.4016 23.9652Z" fill="black"/>
</svg>
