<svg width="33" height="33" viewBox="0 0 33 33" fill="none" xmlns="http://www.w3.org/2000/svg">
<path d="M15.9744 33C14.9095 33 13.8368 32.8792 12.7563 32.6375C11.6759 32.3959 10.5702 32.0482 9.43944 31.5946C9.8267 27.6855 10.9562 24.0348 12.828 20.6425C14.6997 17.2503 17.1039 14.2619 20.0407 11.6773C16.4908 13.4865 13.4172 15.8772 10.82 18.8495C8.2228 21.8217 6.4072 25.214 5.37322 29.0262C5.24413 28.9293 5.12344 28.8246 5.01113 28.7122L4.64711 28.3478C3.13034 26.8293 1.97696 25.1332 1.18695 23.2594C0.39694 21.3856 0.00129086 19.431 0 17.3957C0 15.1988 0.435666 13.0988 1.307 11.0958C2.17833 9.09275 3.38852 7.31586 4.93755 5.76512C7.55155 3.14824 10.9401 1.44437 15.1031 0.653489C19.2661 -0.137389 25.1073 -0.210404 32.6266 0.434446C33.2075 8.15584 33.1106 14.0441 32.3361 18.0993C31.5616 22.1545 29.8835 25.4737 27.3018 28.057C25.7205 29.6401 23.9533 30.86 22.0002 31.7168C20.0471 32.5735 18.0385 33.0013 15.9744 33Z" fill="black"/>
</svg>
