<svg width="86" height="154" viewBox="0 0 85.5428 153.662" fill="none" xmlns="http://www.w3.org/2000/svg">
<path d="M41.3595 0C41.4084 0.00745801 41.4588 0.0149013 41.5076 0.0223593C46.747 2.83404 54.2107 4.72274 57.5635 9.97006C60.0025 13.788 59.81 16.6086 59.0636 20.205C60.4097 22.3888 61.4227 24.2738 62.5704 26.5807L62.5555 26.507C60.7044 17.1496 66.4518 11.9916 63.4633 3.10048C64.6214 4.22279 65.6565 5.25648 66.6473 6.53322C72.9425 14.6437 74.1021 25.6772 65.2952 32.4946C66.8176 36.1392 67.7713 39.2337 68.8197 43.0034C68.9574 33.6057 75.4038 30.4043 74.456 20.3712C78.1257 26.4539 80.8416 32.6365 78.715 39.9166C77.4045 44.3996 74.4012 47.3289 70.3554 49.4992C71.0781 52.7853 71.5549 56.6316 71.78 59.9692C74.2635 50.8055 80.544 49.1047 81.7065 39.6944C82.207 40.9375 82.7046 42.1814 83.0763 43.4704C85.9448 53.4108 82.7564 64.0859 72.0273 67.1436C72.1014 69.9974 71.5994 75.1312 71.161 77.8865C74.302 71.6492 78.909 69.6118 82.8319 64.311C83.8212 62.9751 84.5127 61.0936 85.0473 59.5379C85.1466 60.3236 85.2399 61.1101 85.3287 61.8972C86.5934 73.2016 82.3581 83.9407 69.883 85.3225C69.3188 88.5814 68.0289 92.7855 66.8294 95.8065C68.6598 93.786 69.3247 92.8271 71.6779 91.1203C77.1379 87.1599 81.1467 86.6112 84.1603 80.1405C83.7234 87.9104 82.1167 95.3387 75.3934 100.258C72.2865 102.533 67.9638 103.527 64.1594 102.876C62.8118 105.965 61.2613 108.962 59.5153 111.845C61.2583 110.619 63.413 109.314 65.4107 108.583C71.1847 106.469 74.7329 105.777 78.9224 101.043C77.0446 108.148 74.0191 114.933 66.8605 118.134C63.145 119.767 58.9333 119.868 55.1437 118.413C53.4718 120.963 50.8595 123.976 48.7773 126.163C50.9394 125.179 53.223 124.492 55.5687 124.12C61.2302 123.17 65.1604 123.624 69.766 119.725C65.0272 130.531 55.0578 138.053 43.4594 131.666C41.2159 133.656 38.0735 136.405 35.6004 138.027C38.5918 137.231 40.511 137.173 43.6223 137.285C49.1076 137.483 52.5003 138.699 57.4524 135.814C51.0846 144.668 40.9686 150.405 30.7623 143.848C30.1211 143.389 29.6827 143.028 29.0844 142.512C20.7248 147.738 10.209 151.722 0.536381 153.662C0.450341 152.837 0.195182 151.896 0 151.078C10.1394 149.134 18.887 145.399 27.8316 140.406C27.0038 137.656 26.7816 133.66 27.3133 130.839C28.5794 124.127 31.756 120.509 37.0265 116.721C34.5445 123.044 38.8717 128.611 34.4334 135.936C36.7155 134.184 39.7809 131.843 41.8512 129.874C40.4829 127.421 39.3796 123.338 39.3515 120.542C39.2848 113.947 41.6424 109.672 45.974 105.042C44.8811 112.486 49.9917 115.136 47.2713 124.548C49.3934 122.05 51.3215 119.622 53.3903 117.13C51.5851 115.213 49.7014 111.263 49.1194 108.699C47.5793 101.912 49.2408 97.0209 52.6573 91.3129C52.6765 97.1711 56.1418 99.5679 57.3724 104.975C57.8285 106.981 57.7145 109.056 57.5383 111.085C59.1095 108.029 60.6911 105.111 62.2594 102.004C60.0676 100.409 57.4953 96.9321 56.3832 94.447C53.6287 88.2983 54.1307 82.6417 56.3728 76.509C58.6045 84.3923 64.4467 84.7732 65.193 94.9627C65.7957 92.3761 66.8057 89.8537 67.3951 87.2583C67.5773 86.4532 67.7757 85.6575 68.0141 84.8669C60.1758 80.3105 55.9345 73.07 56.7045 63.9166C56.7801 63.0304 56.8645 62.1449 56.9519 61.2596C59.9033 67.0509 64.1638 67.4946 67.4603 72.6739C68.4065 74.1619 68.8582 75.5594 69.4239 77.2226C69.6727 73.7845 70.0341 70.7286 70.2369 67.1385C67.2707 66.3995 63.4989 64.2887 61.2627 62.213C56.5876 57.8718 54.9571 53.0883 54.6417 46.9133C60.1195 53.3066 65.4537 50.8262 70.1303 60.1563C69.7038 56.5526 69.2906 53.3587 68.7812 49.774C65.6758 49.5765 62.0136 48.5475 59.3109 47.0105C53.4466 43.6757 51.092 39.138 49.3297 32.9302C55.5643 38.0376 61.048 35.138 67.2811 43.0498C66.1985 39.4581 65.2626 36.533 63.915 33.0468C61.1265 33.6337 56.2188 32.9955 53.5325 31.9956C47.5749 29.778 44.0755 25.8901 41.4232 20.3059C48.3775 24.07 54.7024 19.9395 61.5278 27.3915C60.4231 25.215 59.0784 22.8983 57.8789 20.7688C57.8019 20.7598 57.7249 20.7496 57.6479 20.7379C46.051 18.9611 46.5619 7.21444 41.3595 0Z" fill="#E3E7EE"/>
</svg>
