<svg width="85" height="154" viewBox="0 0 85.4634 153.617" fill="none" xmlns="http://www.w3.org/2000/svg">
<path d="M43.7751 0.00398019L43.8742 0L44.0005 0.131388C43.3305 1.1835 42.6861 2.08437 42.1786 3.24694C38.7167 11.1775 37.7101 18.8752 27.7074 20.6965C26.5252 22.4799 25.1846 25.0976 24.133 27.0367C31.7929 19.7393 36.7255 24.1127 44.1849 20.1956C42.0568 24.2635 40.3378 26.8544 36.4995 29.6281C32.6521 32.4084 26.2513 33.8262 21.5956 32.9664C20.2963 36.4568 19.321 39.3985 18.2291 42.947C24.5851 35.0418 29.7474 38.0334 36.2017 32.8457C35.6272 34.6161 35.2549 36.0803 34.4785 37.8085C31.2031 45.098 24.7323 49.0124 16.806 49.6866C16.1346 53.332 15.7923 56.3657 15.4006 60.0568C19.9012 51.0253 24.9841 53.3222 30.9084 46.8506C30.5784 54.3857 27.4736 60.7469 20.8229 64.6711C19.1428 65.6624 17.186 66.5889 15.2749 67.0115C15.4896 70.5434 15.7042 73.6975 16.0778 77.2253C16.6481 75.5447 17.2694 73.7372 18.2844 72.2631C21.7633 67.2101 25.4879 66.9839 28.582 61.1876C28.6776 62.4945 28.8331 63.7809 28.8861 65.093C29.2262 73.5124 24.857 80.7022 17.5214 84.7684C18.3948 88.2248 19.4346 91.4168 20.2899 94.7766C21.1296 84.756 27.1902 84.005 29.1282 76.2883C32.6222 85.8611 31.4012 95.1083 23.2911 101.898C24.8056 105.108 26.4103 107.875 27.9356 110.974C27.809 109.047 27.6917 106.95 28.1279 105.051C29.4076 99.479 32.5218 97.5482 32.9517 91.4642C38.605 99.5826 38.2669 109.352 32.1303 117.08C32.6847 117.644 33.7113 119.018 34.2696 119.702C35.5837 121.316 36.9245 122.907 38.2914 124.477C35.3171 116.446 40.6872 112.015 39.5119 104.955C44.7291 110.133 47.3466 116.853 45.6908 124.195C45.2775 126.027 44.6023 128.15 43.6516 129.776C45.9406 131.892 48.6585 133.981 51.12 135.895C46.6421 128.528 50.9619 123.285 48.5273 116.689C54.5288 120.51 58.491 126.74 58.4878 133.962C58.4869 135.989 58.3658 138.36 57.7042 140.286C66.1653 145.038 75.8084 149.373 85.4634 150.967C85.311 151.852 85.1474 152.735 84.9725 153.617C76.5821 151.871 68.4739 148.974 60.879 145.007C59.5958 144.32 57.5803 143.229 56.4634 142.398C56.0701 142.791 55.3847 143.29 54.9243 143.645C46.3017 149.773 35.7995 145.548 29.7068 137.922C29.138 137.21 28.5958 136.469 28.0498 135.738C35.2126 139.925 41.3519 135.417 50.1201 138.04C48.3654 137.014 43.5959 133.144 42.15 131.585C41.411 131.966 40.6436 132.328 39.8774 132.652C29.2465 137.142 19.7462 129.326 15.8253 119.733C20.3289 123.54 24.5493 123.119 30.0785 124.068C32.7284 124.522 34.4264 125.051 36.8333 126.163C35.3274 124.778 31.5132 120.214 30.4152 118.364C25.977 120.042 20.7734 119.569 16.7577 117.042C10.8054 113.297 8.25102 107.591 6.67432 101.036C12.7799 108.121 18.6928 106.268 26.0616 111.872C24.3467 109.219 22.6834 105.699 21.3575 102.809C20.62 102.956 20.0226 102.979 19.2779 102.987C15.0886 103.057 11.049 101.431 8.07702 98.48C3.16648 93.672 1.56315 86.945 1.48096 80.3019C4.21307 86.2766 8.44517 87.2168 13.5029 90.793C15.7557 92.3859 16.888 93.5961 18.6481 95.6799C17.2913 92.3303 16.3977 88.687 15.5798 85.1761C15.2163 85.1705 14.8502 85.1623 14.4891 85.1167C10.3588 84.5766 6.60871 82.4292 4.05444 79.1412C-0.576 73.1986 -0.380314 66.4634 0.497396 59.4664C2.46242 66.091 6.42804 67.8519 10.8741 72.7404C12.4178 74.4377 13.3746 75.9302 14.408 77.9467C13.8011 74.3503 13.4978 70.7093 13.5012 67.0623C3.11652 64.2426 -0.230447 53.9115 2.20931 44.2881C2.61621 42.683 3.18517 41.2059 3.76068 39.6599C4.79699 45.5103 6.75414 47.8184 10.2662 52.5603C11.8213 54.6599 12.962 57.3004 13.7746 59.7777C13.8639 56.7347 14.538 52.4279 15.1717 49.4006C14.4714 49.0987 13.7478 48.6555 13.1086 48.2335C9.65891 45.9901 7.25853 42.4531 6.44922 38.4204C5.12234 31.879 7.51191 25.784 11.0778 20.4203C10.2305 27.225 13.4177 30.5891 15.5737 36.7361C16.3207 38.8657 16.601 40.7106 16.7469 42.9442C17.6091 39.3459 18.787 35.8304 20.2671 32.4388C16.2289 29.6345 13.7525 24.5297 13.8937 19.629C14.0911 12.7795 17.4115 7.57028 22.1739 2.91332C18.9031 10.8983 24.8351 17.24 22.9358 26.6299C24.0656 24.2323 25.1536 22.3324 26.4712 20.0343C25.8505 17.7073 25.7266 15.3873 26.4515 13.0639C28.8846 5.26522 37.3252 3.4729 43.7751 0.00398019Z" fill="#E3E7EE"/>
</svg>
