<svg width="40" height="40" viewBox="0 0 40 40" fill="none" xmlns="http://www.w3.org/2000/svg">
<path d="M13.0765 23.876V23.7049C13.0765 21.93 14.5104 20.4972 16.2868 20.4972C18.0631 20.4972 19.4971 21.93 19.4971 23.7049C19.4971 25.4798 18.0631 26.9126 16.2868 26.9126H16.1156L3.44569 39.5723L3.87373 40L30.198 32.8361V21.3953L33.4082 18.1877L21.8299 6.61855L18.6196 9.82625H7.16961L0 36.1294L0.428036 36.5571L13.0979 23.8974L13.0765 23.876ZM36.4259 15.151L38.7587 12.8201C39.572 12.0075 40 10.9383 40 9.78348C40 8.65009 39.5506 7.55948 38.7373 6.76824L33.1942 1.251C31.5249 -0.417001 28.8068 -0.417001 27.1375 1.251L24.8261 3.56055L36.4259 15.151Z" fill="black"/>
</svg>
