<svg width="41" height="41" viewBox="0 0 41 41" fill="none" xmlns="http://www.w3.org/2000/svg">
<path fill-rule="evenodd" clip-rule="evenodd" d="M41 12.9005C41 20.0263 35.1986 25.8031 28.0443 25.8031C26.7405 25.8031 23.7681 25.5038 22.3229 24.3025L20.5148 26.1024C19.4509 27.1622 19.7379 27.4738 20.2114 27.9863C20.4082 28.2016 20.6378 28.4496 20.8161 28.8043C20.8161 28.8043 22.3229 30.9035 20.8161 33.0047C19.9121 34.2039 17.3804 35.8829 14.49 33.0047L13.8873 33.6033C13.8873 33.6033 15.6933 35.7045 14.1886 37.8057C13.2846 39.005 10.8739 40.2042 8.76447 38.105L6.65711 40.2042C5.20985 41.6454 3.44279 40.8049 2.7417 40.2042L0.931592 38.4043C-0.75552 36.7234 0.228458 34.903 0.931592 34.2019L16.5973 18.6015C16.5973 18.6015 15.0906 16.203 15.0906 12.9026C15.0906 5.77685 20.892 0 28.0463 0C35.2007 0 41 5.77685 41 12.9005ZM28.0463 17.4023C29.2421 17.4045 30.3897 16.9317 31.237 16.0879C32.0842 15.2441 32.5617 14.0983 32.5644 12.9026C32.5634 12.3103 32.4456 11.7241 32.218 11.1773C31.9904 10.6306 31.6573 10.134 31.2377 9.71596C30.8182 9.29793 30.3204 8.96663 29.7728 8.74098C29.2252 8.51533 28.6386 8.39974 28.0463 8.40082C27.4541 8.39974 26.8674 8.51533 26.3198 8.74098C25.7723 8.96663 25.2745 9.29793 24.855 9.71596C24.4354 10.134 24.1023 10.6306 23.8747 11.1773C23.647 11.7241 23.5293 12.3103 23.5282 12.9026C23.531 14.0983 24.0084 15.2441 24.8557 16.0879C25.7029 16.9317 26.8506 17.4045 28.0463 17.4023Z" fill="black"/>
</svg>
