<svg width="33" height="40" viewBox="0 0 33 40" fill="none" xmlns="http://www.w3.org/2000/svg">
<path fill-rule="evenodd" clip-rule="evenodd" d="M23.5598 0H0V22.1937C2.16435 20.8412 4.66765 20.125 7.22211 20.1275C10.014 20.1215 12.7394 20.976 15.0252 22.5739C17.311 24.1719 19.0453 26.4351 19.9907 29.0537L20.4431 30.3165L19.9907 31.5809C19.4193 33.1732 18.5499 34.643 17.4286 35.9121H32.6738V9.08659L23.5598 0Z" fill="black"/>
<path d="M7.67386 40C5.93636 39.5625 4.50186 38.5655 3.37036 37.009C2.23886 35.4525 1.67336 33.7245 1.67386 31.825V27.25L7.67386 25L13.6739 27.25V31.825C13.6739 33.725 13.1084 35.4532 11.9774 37.0098C10.8464 38.5662 9.41186 39.563 7.67386 40Z" fill="black"/>
</svg>
