<svg width="31" height="34" viewBox="0 0 31 34" fill="none" xmlns="http://www.w3.org/2000/svg">
<path d="M27.4412 11.7269C24.242 12.7902 20.0213 13.3945 15.5 13.3945C10.9786 13.3945 6.758 12.7902 3.5588 11.7254C2.2785 11.3019 1.0447 10.7641 0 10.0856V16.7388C0 19.584 6.93935 21.8898 15.5 21.8898C24.0606 21.8898 31 19.584 31 16.7388V10.0841C29.9553 10.7641 28.723 11.3004 27.4396 11.7269" fill="black"/>
<path d="M31 21.6704C29.9553 22.3488 28.723 22.8866 27.4396 23.3116C24.242 24.3749 20.0213 24.9807 15.5 24.9807C10.9786 24.9807 6.758 24.3749 3.5588 23.3116C2.2785 22.8882 1.0447 22.3504 0 21.6704V28.849C0 31.6926 6.93935 34 15.5 34C24.0606 34 31 31.6942 31 28.849V21.6704ZM15.5 10.3035C6.93935 10.3035 0 7.99618 0 5.151V5.14636C0.00775 2.30273 6.944 0 15.5 0C21.9201 0 27.4288 1.29818 29.7817 3.14655C30.566 3.76318 31 4.44009 31 5.151C31 7.99618 24.0606 10.3035 15.5 10.3035Z" fill="black"/>
</svg>
