<svg viewBox="0 0 35 30" width="35" height="30" fill="none" xmlns="http://www.w3.org/2000/svg">
<path id="Vector" d="M14.35 6.88235C15.3388 6.42535 16.4123 6.18477 17.5 6.17647C19.5886 6.17647 21.5916 7.01313 23.0685 8.50239C24.5453 9.99165 25.375 12.0115 25.375 14.1176C25.3745 15.0532 25.2024 15.9805 24.8675 16.8529L29.75 21.4235C31.9299 19.3338 33.7095 16.8573 35 14.1176C35 14.1176 29.75 1.76471 17.5 1.76471C15.0869 1.75195 12.6994 2.26355 10.5 3.26471L14.35 6.88235ZM3.5 0L1.75 1.76471L6.2125 6C3.59768 8.23432 1.4806 11.0006 0 14.1176C0 14.1176 5.25 26.4706 17.5 26.4706C20.3337 26.4824 23.1252 25.7786 25.62 24.4235L31.5 30L33.25 28.2353L3.5 0ZM17.5 22.0588C15.4114 22.0588 13.4084 21.2222 11.9315 19.7329C10.4547 18.2436 9.625 16.2238 9.625 14.1176C9.63466 12.7535 9.99654 11.4155 10.675 10.2353L13.3525 12.7765C13.2083 13.209 13.1316 13.6614 13.125 14.1176C13.1232 14.8359 13.2961 15.5436 13.6284 16.1789C13.9608 16.8142 14.4425 17.3576 15.0314 17.7616C15.6202 18.1656 16.2984 18.4179 17.0064 18.4964C17.7144 18.5749 18.4306 18.4771 19.0925 18.2118L21.7875 20.7706C20.5132 21.6117 19.0231 22.0595 17.5 22.0588Z" fill="var(--fill-0, black)"/>
</svg>
