<svg viewBox="0 0 31 30" width="31" height="30" fill="none" xmlns="http://www.w3.org/2000/svg">
<path id="Vector" d="M15.5 22.4211C15.5 20.9053 16.275 19.4842 17.36 18.5368V18.1579C17.36 14.3053 20.77 11.0526 24.8 11.0526C27.3575 11.0526 29.6515 12.3632 31 14.3053V3.15789C31 2.32037 30.6734 1.51715 30.092 0.924926C29.5107 0.332706 28.7222 0 27.9 0H3.1C1.3795 0 0 1.40526 0 3.15789V22.1053C0 22.9428 0.326606 23.746 0.907969 24.3382C1.48933 24.9305 2.27783 25.2632 3.1 25.2632H15.5V22.4211ZM3.1 3.15789L15.5 11.0526L27.9 3.15789V6.31579L15.5 14.2105L3.1 6.31579V3.15789ZM29.14 20.5263V18.1579C29.14 15.9474 26.97 14.2105 24.8 14.2105C22.63 14.2105 20.46 15.9474 20.46 18.1579V20.5263C19.53 20.5263 18.6 21.4737 18.6 22.4211V27.9474C18.6 29.0526 19.53 30 20.46 30H28.985C30.07 30 31 29.0526 31 28.1053V22.5789C31 21.4737 30.07 20.5263 29.14 20.5263ZM27.125 20.5263H22.475V18.1579C22.475 16.8947 23.56 16.1053 24.8 16.1053C26.04 16.1053 27.125 16.8947 27.125 18.1579V20.5263Z" fill="var(--fill-0, black)"/>
</svg>
