<svg width="227" height="28" viewBox="0 0 227 28" fill="none" xmlns="http://www.w3.org/2000/svg">
<path d="M6.88795 21.984C3.10795 21.984 0.195946 19.408 -5.44786e-05 15.992H3.49995C3.72395 17.756 4.98395 18.764 6.88795 18.764C9.12795 18.764 10.5839 17.42 10.5839 15.236C10.5839 13.08 9.12795 11.624 6.91595 11.624C5.26395 11.624 4.11595 12.24 3.52795 13.36H0.335946L1.95995 2.16001H12.9639V5.35201H4.70395L4.03195 9.77601C4.78795 9.10401 6.01995 8.54401 7.61595 8.54401C11.4799 8.54401 14.3079 11.428 14.3079 15.236C14.3079 19.184 11.1439 21.984 6.88795 21.984ZM15.3998 21.76V2.16001H21.7558C27.1878 2.16001 31.8078 5.40801 31.8078 11.96C31.8078 18.512 27.1878 21.76 21.7558 21.76H15.3998ZM19.0958 18.54H21.4478C24.8358 18.54 28.0558 16.804 28.0558 11.96C28.0558 7.11601 24.8358 5.35201 21.4478 5.35201H19.0958V18.54ZM36.8294 21.76V2.16001H41.1134L47.0494 16.636L52.9854 2.16001H57.2414V21.76H53.7694V8.76801L48.4494 21.76H45.6494L40.3014 8.76801V21.76H36.8294ZM68.3813 17.056H71.7413C71.2093 20.052 68.5773 21.984 65.1053 21.984C60.4853 21.984 57.9093 18.344 57.9093 14.648C57.9093 10.924 60.2053 7.42401 64.8253 7.42401C69.5573 7.42401 71.6853 10.868 71.6853 14.228C71.6853 14.704 71.6573 15.124 71.6293 15.404H61.2133C61.4653 17.672 62.9213 19.128 65.1053 19.128C66.8693 19.128 68.0173 18.4 68.3813 17.056ZM64.8253 10C62.8933 10 61.6613 11.008 61.2973 13.136H68.2413C68.1013 11.344 66.8693 10 64.8253 10ZM72.0599 21.76V7.64801H75.5039V9.86001C76.2039 8.43201 77.6039 7.42401 79.5919 7.42401C81.8319 7.42401 83.3719 8.37601 83.9879 10.112C84.6319 8.65601 86.4239 7.42401 88.6639 7.42401C91.7159 7.42401 93.6759 9.63601 93.6759 12.632V21.76H90.2599V13.668C90.2599 11.68 89.2239 10.364 87.5719 10.364C85.7239 10.364 84.5759 11.68 84.5759 13.668V21.76H81.1599V13.668C81.1599 11.68 80.1239 10.364 78.4719 10.364C76.6519 10.364 75.5039 11.68 75.5039 13.668V21.76H72.0599ZM101.387 21.984C97.0753 21.984 93.9953 18.904 93.9953 14.704C93.9953 10.504 97.0753 7.42401 101.387 7.42401C105.671 7.42401 108.751 10.504 108.751 14.704C108.751 18.904 105.671 21.984 101.387 21.984ZM101.387 19.016C103.711 19.016 105.279 17.252 105.279 14.704C105.279 12.156 103.711 10.392 101.387 10.392C99.0353 10.392 97.4673 12.156 97.4673 14.704C97.4673 17.252 99.0353 19.016 101.387 19.016ZM117.783 10.532H115.571C113.387 10.532 112.519 12.408 112.519 15.096V21.76H109.075V7.64801H112.519V10.14C113.219 8.34801 114.311 7.64801 116.131 7.64801H117.783V10.532ZM130.003 7.64801L124.823 21.76L124.179 23.58C123.311 26.072 122.331 27.472 119.699 27.472H117.767V24.728H119.391C120.035 24.728 120.651 24.336 121.071 23.16L121.603 21.704L116.451 7.64801H119.951L123.227 17.392L126.475 7.64801H130.003ZM143.076 21.984C137.868 21.984 133.36 18.624 133.36 11.96C133.36 5.29601 137.952 1.93601 143.076 1.93601C147.808 1.93601 151.392 4.70801 151.924 8.76801H148.06C147.78 6.61201 145.708 5.12801 143.076 5.12801C139.66 5.12801 137.084 7.50801 137.084 11.96C137.084 16.412 139.66 18.764 143.076 18.764C145.764 18.764 147.836 17.28 148.172 15.152H151.868C151.476 19.212 147.892 21.984 143.076 21.984ZM160.944 10.532H158.732C156.548 10.532 155.68 12.408 155.68 15.096V21.76H152.236V7.64801H155.68V10.14C156.38 8.34801 157.472 7.64801 159.292 7.64801H160.944V10.532ZM173.163 7.64801L167.983 21.76L167.339 23.58C166.471 26.072 165.491 27.472 162.859 27.472H160.927V24.728H162.551C163.195 24.728 163.811 24.336 164.231 23.16L164.763 21.704L159.611 7.64801H163.111L166.387 17.392L169.635 7.64801H173.163ZM177.668 21.984C174.252 21.984 171.984 20.08 171.816 17.056H174.952C175.092 18.4 176.128 19.24 177.668 19.24C179.012 19.24 179.908 18.568 179.908 17.728C179.908 14.592 172.18 17.588 172.18 11.624C172.18 9.16001 174.336 7.42401 177.248 7.42401C180.552 7.42401 182.82 9.24401 182.96 11.988H179.824C179.628 10.672 178.424 10 177.332 10C176.1 10 175.288 10.56 175.288 11.512C175.288 14.564 183.128 11.204 183.128 17.588C183.128 20.248 180.972 21.984 177.668 21.984ZM185.077 3.39201H188.521V7.64801H192.441V10.532H188.521V16.692C188.521 18.12 189.277 18.848 190.565 18.848H192.441V21.76H190.173C187.093 21.76 185.077 19.968 185.077 16.832V10.532H182.305V7.64801H184.181C184.741 7.64801 185.077 7.39601 185.077 6.72401V3.39201ZM198.073 7.42401C201.657 7.42401 204.177 9.49601 204.177 12.688V21.76H200.789V19.66C200.201 21.06 198.577 21.984 196.561 21.984C193.761 21.984 191.857 20.192 191.857 17.756C191.857 15.012 193.985 13.304 197.149 13.304H199.753C200.453 13.304 200.789 12.912 200.789 12.352C200.789 10.98 199.725 10 197.905 10C196.085 10 194.993 11.148 194.937 12.408H191.857C192.025 9.60801 194.405 7.42401 198.073 7.42401ZM197.373 19.436C199.529 19.436 200.789 17.924 200.789 15.796V15.572H197.625C196.169 15.572 195.189 16.384 195.189 17.616C195.189 18.708 196.085 19.436 197.373 19.436ZM205.24 21.76V1.60001H208.656V21.76H205.24ZM214.913 6.72001V1.29361H212.964V8.16345e-06H218.29V1.29361H216.341V6.72001H214.913ZM219.365 6.72001V8.16345e-06H220.877L222.708 4.04881L224.556 8.16345e-06H226.051V6.72001H224.623V2.99041L223.162 6.09841H222.254L220.81 2.99041V6.72001H219.365Z" fill="black"/>
</svg>
