<svg width="163" height="17" viewBox="0 0 163 17" fill="none" xmlns="http://www.w3.org/2000/svg">
<path d="M8.35025 0.0722449C9.35708 0.0401 10.4219 0.061324 11.4331 0.0653279C11.82 0.573373 13.3793 3.52487 13.7694 4.23616L18.8312 13.458C24.0636 13.5738 29.3567 13.3931 34.5956 13.4639C36.3038 13.487 36.7874 12.3827 36.5302 10.8197C36.4349 10.2405 35.9466 9.88956 35.481 9.6057C32.804 9.48487 29.9922 9.66069 27.3419 9.58351C24.1061 9.48932 22.842 7.20385 23.0746 4.25221C23.1762 2.96299 23.4462 1.99298 24.4351 1.09074C25.0335 0.539712 25.7912 0.192392 26.5993 0.0986715C27.2325 0.0280153 28.3056 0.0563669 28.9771 0.0559109L73.5826 0.057248C75.8398 0.0502678 78.7721 -0.409966 80.3623 1.40045C81.4562 2.64508 81.4246 3.99652 81.3776 5.53056C81.3039 7.92974 79.6128 9.54528 77.2409 9.61169C77.1117 9.61582 77.0983 9.66101 77.0053 9.74516C76.9797 10.5579 81.2236 15.3419 80.9935 16.1413C80.6945 16.3629 78.0359 16.2531 77.4824 16.2448C75.9102 14.0359 74.3529 11.8163 72.8105 9.58634L66.9587 9.58359C65.8235 9.58424 64.49 9.61987 63.3723 9.54561C63.3441 8.61816 63.3597 7.70479 63.3712 6.77782C67.8991 6.59697 72.6238 6.93341 77.1572 6.68377C78.6209 6.60316 78.6514 5.03552 78.4434 3.89576C78.0927 3.23601 77.686 2.93057 76.9302 2.89951C75.7407 2.85063 74.5459 2.87546 73.3546 2.87978L66.936 2.88963L58.3049 2.88238C56.7796 2.88228 54.8697 2.83453 53.3745 2.92214C53.1423 7.09414 53.5442 12.0114 53.3217 16.2411C52.4909 16.2999 51.3031 16.2854 50.4828 16.2428C50.2438 12.0406 50.6672 7.05441 50.4051 2.90093C48.4146 2.82395 46.0252 2.88406 44.01 2.88396C38.8963 2.90902 33.7825 2.90192 28.6689 2.86265C27.1744 2.83908 25.985 2.92955 25.928 4.72461C25.8494 7.20371 28.1237 6.78192 29.9025 6.76566C31.4096 6.74985 32.9168 6.74192 34.424 6.74187C38.0452 6.74518 39.4957 8.24433 39.4352 11.8192C39.4126 13.1494 39.1488 14.2042 38.165 15.177C37.6577 15.6857 37.0054 16.0251 36.2974 16.1486C35.1472 16.3599 31.2376 16.2794 29.8632 16.2795L17.1791 16.2676C16.1696 14.6612 10.4746 3.74042 9.9036 3.44238C9.5043 3.64436 3.62569 15.0663 2.96585 16.25C2.43184 16.2773 0.302292 16.3856 0 16.0778C0.171054 15.1942 7.56875 1.37539 8.35025 0.0722449Z" fill="black"/>
<path fill-rule="evenodd" clip-rule="evenodd" d="M145.937 0.0893312C147.804 -0.016187 150.45 0.0571125 152.372 0.0590578C154.28 0.0650733 156.198 0.0262661 158.109 0.0531984C159.328 0.0703946 160.475 0.470589 161.331 1.38718C162.41 2.54106 162.342 3.99295 162.328 5.46433C162.316 6.64686 161.75 7.2204 160.947 7.95359C162.866 8.7312 162.939 9.76006 162.952 11.5981C162.946 14.9071 161.255 16.3032 158.086 16.2778C152.282 16.2312 146.468 16.3471 140.672 16.2632C139.631 14.6479 134.095 3.91025 133.603 3.50535C133.556 3.46697 133.475 3.4354 133.42 3.40574C132.811 3.96179 127.323 14.6595 126.513 16.2436C124.168 16.3898 120.456 16.2917 118.001 16.2778C114.915 16.2604 111.074 16.3928 108.063 16.2456C108.005 15.2806 108.046 13.8806 108.045 12.8677L108.043 2.55027C108.042 1.87146 108.003 0.711508 108.108 0.0737062C108.946 0.041359 110.025 0.0447782 110.848 0.0903078C110.892 3.04619 110.82 6.04786 110.851 9.0073C110.866 10.437 110.804 12.0259 110.897 13.4419C112.552 13.5095 114.435 13.468 116.103 13.4682L124.766 13.4575L131.847 0.0737062C132.742 0.0251472 134.024 0.0593746 134.948 0.0571046C135.617 1.03214 136.882 3.50378 137.485 4.60398L142.34 13.4516C145.823 13.5885 149.711 13.3798 153.236 13.4712C154.018 13.4914 158.412 13.4977 158.86 13.4009C159.25 13.3179 159.592 13.0833 159.811 12.7495C160.145 12.2323 160.16 11.4021 160.041 10.8159C159.917 10.1991 159.519 9.92634 159.02 9.60984C154.761 9.37458 150.16 9.8396 145.935 9.54734C145.832 6.77288 145.867 2.87968 145.937 0.0893312ZM158.182 2.96628C155.464 2.74978 152.681 2.9401 149.95 2.88816C149.583 2.88118 149.199 2.88553 148.836 2.90671C148.665 3.40047 148.763 6.07737 148.778 6.72214C149.612 6.76479 150.497 6.7716 151.34 6.75828C153.564 6.72314 155.825 6.85344 158.041 6.68699C158.305 6.66703 158.583 6.50246 158.787 6.34128C158.958 6.12001 159.154 5.88644 159.278 5.63718C159.289 5.09937 159.311 4.54183 159.275 4.00632C159.064 3.65604 158.636 3.00244 158.182 2.96628Z" fill="black"/>
<path d="M96.2983 0.157245C97.5891 0.156236 99.6502 0.0774002 100.845 0.32912C101.651 0.497583 102.406 0.851969 103.05 1.3633C104.074 2.17801 104.986 3.75548 105.012 5.00295C105.045 6.66178 105.231 10.6222 104.88 12.0733C104.687 12.8479 104.327 13.571 103.825 14.1924C102.724 15.5591 101.49 15.9714 99.8354 16.1533L93.1118 16.1621C90.7233 16.1634 88.1789 16.5246 86.2417 14.8721C85.1397 13.9591 84.6849 12.961 84.4936 11.8975C86.5428 10.4938 88.5217 9.60888 90.8608 8.7842C95.4704 7.43693 100.32 7.0086 105.039 8.13381C102.367 6.69901 99.1447 5.58674 96.0649 5.90822C91.5594 6.23973 87.7556 8.03196 84.7837 11.4737C84.6807 11.5914 84.5805 11.7118 84.4809 11.8321C84.2852 10.6756 84.3922 9.44173 84.3237 8.15236C84.1098 4.14908 84.8112 0.564185 89.7221 0.164081L96.2983 0.157245Z" fill="black"/>
</svg>
