<svg width="190" height="25" viewBox="0 0 190 25" fill="none" xmlns="http://www.w3.org/2000/svg">
<path d="M26.3745 2.52832C38.4499 1.86912 38.1272 21.1427 27.7534 21.6797C27.705 21.6843 27.6565 21.6888 27.6079 21.6924C25.3703 21.8588 23.0831 21.4544 21.3423 19.9365C17.4032 16.5015 17.2292 9.05957 20.5474 5.16016C22.0343 3.41269 23.9839 2.69692 26.2231 2.53809C26.2736 2.53408 26.3241 2.53093 26.3745 2.52832ZM20.9517 12.9746C21.0707 16.5096 23.1762 19.7099 27.0796 19.5586C28.715 19.4952 29.8412 18.9402 30.9858 17.8066C32.1638 16.312 32.6358 14.8804 32.812 12.9766L20.9517 12.9746ZM32.7964 10.9268C32.1541 7.12316 30.3659 4.11453 25.8765 4.74414C22.6211 5.37263 21.1984 7.83417 20.9321 10.9189L27.9624 10.9199L32.7964 10.9268Z" fill="black"/>
<path d="M78.2109 2.9231C80.8275 2.92107 83.4902 2.69372 85.5977 4.46899C87.6658 6.2115 88.1836 8.38821 88.4463 10.928L90.9609 10.9211L90.9668 12.9846L88.4521 12.97C88.2855 15.286 87.7658 17.0569 86.3174 18.8987C86.2297 19.0136 86.1345 19.1226 86.0322 19.2249C83.769 21.4789 81.2169 21.2782 78.25 21.2776L73.5488 21.2708L73.5508 12.9768L71.207 12.9778L71.2148 10.9182L73.5479 10.9202L73.5518 2.93188L78.2109 2.9231ZM76.1602 12.9749L76.1582 19.136C79.0179 19.157 82.0525 19.6121 84.2041 17.6292C85.3843 16.1363 85.6674 14.8374 85.8926 12.969L76.1602 12.9749ZM85.834 10.9241C85.3391 4.24216 81.3071 5.02814 76.1602 5.06763L76.1631 10.9202L85.834 10.9241Z" fill="black"/>
<path d="M58.049 2.91588C58.2443 2.90319 58.4261 2.93627 58.619 2.96428C59.3525 3.56404 66.495 15.6968 67.6299 17.4785C67.571 12.6514 67.6042 7.75645 67.6028 2.9244L70.105 2.92001L70.0933 21.264L67.4022 21.2756L67.2643 21.2663C66.8184 20.9968 58.941 7.92838 58.0409 6.53089C58.0817 11.4429 58.0978 16.3552 58.0892 21.2675L55.5669 21.2576C55.6547 15.1782 55.546 9.01857 55.593 2.9224L58.049 2.91588Z" fill="black"/>
<path d="M158.594 2.9285L161.662 2.92778C164.66 7.66975 167.727 12.7449 170.639 17.5504C170.566 12.7273 170.618 7.77086 170.613 2.93763L173.078 2.91919L173.079 16.8557C173.079 17.444 173.169 20.9535 172.941 21.2632C172.028 21.2834 171.068 21.2655 170.151 21.2624C169.101 19.7806 167.95 17.8033 166.979 16.2253L161.02 6.52009C161.075 11.4337 161.092 16.3478 161.071 21.2617L158.582 21.2704L158.594 2.9285Z" fill="black"/>
<path d="M8.50871 2.53776C12.554 2.23161 15.4451 3.85511 15.7836 8.18683C14.9891 8.22261 14.1763 8.19699 13.3798 8.18187C13.1746 7.20678 13.0401 6.44336 12.3164 5.68363C10.8986 4.19553 7.35116 4.23163 5.91235 5.6428C5.41375 6.12332 5.13231 6.7856 5.13269 7.47747C5.12512 9.90005 7.45435 10.1681 9.36948 10.5828C12.702 11.3046 16.3868 11.825 16.3029 16.1571C16.2154 20.6677 12.6666 21.7686 8.88063 21.7334C4.59779 21.4988 2.35268 19.8454 1.9541 15.3686L4.49973 15.3672C4.70201 18.5514 6.85243 19.791 9.87253 19.6135C11.9688 19.4902 13.9821 18.5 13.8014 16.1013C13.6663 13.9189 11.4275 13.5917 9.73461 13.1712C6.89568 12.4661 2.99012 12.2262 2.718 8.51351C2.42952 4.57743 4.92197 2.79575 8.50871 2.53776Z" fill="black"/>
<path d="M97.5591 2.53763C100.045 2.3502 102.775 2.99447 104.086 5.32886C104.626 6.29241 104.695 7.12913 104.774 8.19191C104.001 8.22169 103.134 8.20091 102.354 8.19854C102.159 5.58933 100.537 4.60545 98.1081 4.61898C96.1002 4.63015 94.1294 5.33767 94.1451 7.6642C94.1145 9.75655 96.3589 10.1413 97.9616 10.5039C101.313 11.2618 105.311 11.6284 105.295 16.0528C105.28 20.6491 101.758 21.7395 97.9152 21.7316C93.5645 21.4788 91.3289 19.8745 90.979 15.365L93.4616 15.3672C93.5998 16.578 93.8456 17.682 94.8296 18.5186C96.6576 20.0738 100.558 20.0514 102.205 18.227C102.653 17.7319 102.889 16.762 102.792 16.1098C102.21 12.1945 95.3861 13.6337 92.9691 11.182C92.1586 10.4665 91.8285 9.65294 91.7313 8.57196C91.3777 4.64234 93.9634 2.79576 97.5591 2.53763Z" fill="black"/>
<path d="M114.922 5.64575L117.049 5.64882L117.048 10.7641C118.281 9.57715 119.546 8.23694 120.761 7.01271L122.295 8.51746L118.643 12.2233L123.709 12.2278L123.722 14.3514L118.595 14.3648C119.779 15.6127 121.091 16.8839 122.313 18.1059C121.769 18.5752 121.236 19.1265 120.725 19.6372C119.871 18.6054 118.036 16.8591 117.043 15.8732L117.052 21.0572L114.918 21.0465L114.914 15.8646C113.675 17.0187 112.44 18.4282 111.195 19.6355L109.709 18.1283C110.827 16.8633 112.177 15.5998 113.365 14.3574C111.69 14.3222 109.912 14.354 108.229 14.356L108.232 12.2245L113.351 12.2242C112.215 11.0065 110.874 9.74122 109.687 8.52902C110.178 8.01959 110.714 7.50363 111.219 7.00325C112.114 7.93752 113.955 9.95835 114.914 10.7515L114.922 5.64575Z" fill="black"/>
<path d="M51.4385 2.91602L52.2984 2.92192L52.3044 12.1837C52.306 14.8443 52.4077 17.8438 50.3627 19.89C47.8892 22.365 42.2878 22.3768 39.8128 19.9206C37.6168 17.7414 37.8654 14.149 37.8691 11.2863L37.8804 6.25009L37.8952 2.92669L40.4364 2.92197L40.4381 10.4881C40.434 14.2013 39.7351 19.4843 45.0109 19.536C50.3944 19.5887 49.7581 14.3318 49.7535 10.5981L49.7582 2.92048L51.4385 2.91602Z" fill="black"/>
<path d="M152.741 2.921L155.253 2.92041L155.254 5.13884C155.249 8.04666 155.559 14.5177 154.911 17.0235C154.628 18.1165 154.117 19.1201 153.312 19.9266C151.942 21.2995 150.025 21.7262 148.147 21.7292C146.197 21.7323 144.23 21.3608 142.798 19.9272C141.949 19.0771 141.428 17.9899 141.152 16.8327C140.672 14.8098 140.847 12.5777 140.848 10.5071L140.856 2.92904L143.394 2.92266L143.385 10.1732C143.376 13.9835 142.651 19.5242 148.057 19.5381C153.424 19.552 152.731 14.1013 152.734 10.3854L152.741 2.921Z" fill="black"/>
<path d="M137.01 2.91558L138.065 2.91406L138.074 21.272L125.287 21.2633L125.291 18.9978L130.817 19.0029L135.492 18.9974L135.489 13.0021C132.643 12.908 129.302 12.9916 126.416 12.9895L126.427 10.8158L135.489 10.8208L135.485 2.9314L137.01 2.91558Z" fill="black"/>
<path d="M177.899 2.61272C180.098 2.41861 181.084 2.95079 181.659 5.08721C180.118 5.14935 180.741 4.46544 179.641 3.65495C178.516 2.82537 175.62 4.24021 176.89 5.3357C178.258 6.51524 182.404 5.95295 181.14 9.27366C180.91 9.87616 180.157 10.1926 179.623 10.3645L179.599 10.3703C177.586 10.8493 176.223 10.2077 175.751 8.1963C177.216 8.06624 176.697 8.65447 177.65 9.44524C178.052 9.80051 179.56 9.57477 179.878 9.24041C181.505 7.50387 178.389 7.13154 177.338 6.83146C174.533 6.03068 175.173 3.11196 177.899 2.61272Z" fill="black"/>
<path d="M186.577 2.72803L187.637 2.74036L187.631 10.2691C186.568 10.276 183.324 10.3526 182.483 10.2057L182.411 10.0709C182.445 9.65665 182.386 9.75535 182.61 9.42544C182.955 9.25504 183.787 9.34294 184.238 9.35211L186.51 9.35091L186.513 6.96825C185.746 6.97493 183.647 7.0299 182.995 6.9311L182.907 6.80847C182.907 6.4869 182.844 6.30376 183.014 6.09756C183.523 5.99611 185.776 6.0596 186.512 6.05765C186.509 5.52534 186.463 3.10984 186.577 2.72803Z" fill="black"/>
</svg>
