<svg viewBox="0 0 197 30" width="197" height="30" fill="none" xmlns="http://www.w3.org/2000/svg">
<g id="Frame 793427371">
<g id="Vector">
<path d="M39.5118 12.0392C40.2952 12.0152 41.1416 12.0323 41.9297 12.0349L47.6747 21.8774C51.0136 21.9593 54.4107 21.8339 57.7557 21.8871C58.6889 21.902 59.7331 21.9107 60.6558 21.8569C61.9073 21.1873 61.864 19.7434 60.6308 19.0407C59.1412 19.0285 57.6516 19.0276 56.162 19.0378C55.4559 19.0392 54.1959 19.0776 53.5549 18.965C53.0323 18.878 52.5415 18.6698 52.1276 18.3594C50.6971 17.2819 50.6168 14.373 51.7144 13.1054C52.2153 12.5208 52.9462 12.1478 53.7438 12.0699C54.4342 12.0016 55.3712 12.0268 56.0805 12.0266L91.1118 12.0286C92.4944 12.0286 94.0939 11.8258 95.2682 12.6761C96.778 13.7692 96.8058 16.6741 95.6878 18.0148C94.9815 18.8617 93.9403 18.9845 92.8553 19.0867C93.8046 20.539 95.088 21.9732 96.0409 23.4374C96.1344 23.5813 96.1483 23.6898 96.1078 23.8498C95.9063 24.0145 93.8204 23.9412 93.4114 23.9374C93.0465 23.5245 92.4885 22.7307 92.1441 22.2685L89.7497 19.0337C87.3513 19.0518 84.7965 19.0666 82.4009 19.0196C82.3769 18.3141 82.3849 17.6766 82.3998 16.9731C85.9563 16.8107 89.7393 17.1153 93.3085 16.8972C93.6876 16.8741 93.9941 16.4678 94.1866 16.1928C94.2254 15.6675 94.2826 15.2271 94.0963 14.7206C93.8339 14.436 93.742 14.3673 93.4128 14.1491C92.6607 14.0788 91.4302 14.111 90.6519 14.1115L78.8263 14.1115C77.4787 14.1117 75.9613 14.0825 74.627 14.1375C74.536 16.3847 74.6523 18.7767 74.6082 21.0362C74.5899 21.9722 74.6499 23.0006 74.5718 23.9271C73.9026 23.992 73.0175 23.9787 72.3455 23.9371C72.2539 21.7196 72.3815 19.3364 72.3315 17.1048C72.3098 16.1333 72.3802 15.0918 72.2822 14.1291C71.246 14.0793 69.8827 14.113 68.8237 14.113L57.2811 14.1116C56.2838 14.1112 55.0084 14.08 54.0407 14.151C53.1172 14.7012 52.8651 15.6166 53.5549 16.5609C53.6737 16.7235 54.1799 16.9286 54.3966 16.9379C56.2971 17.007 58.2865 16.9378 60.1838 16.9477C63.3788 16.9645 64.0112 19.1142 63.6505 21.6162C63.5156 22.5523 62.3831 23.735 61.3565 23.8635C59.6503 24.077 57.8627 23.9192 56.141 23.9697C52.8902 23.9615 49.6331 23.9966 46.3859 23.9568C45.6503 22.9268 41.1633 14.7038 40.7051 14.5142C40.302 14.8146 35.9027 22.8994 35.3207 23.9337C34.9662 23.9726 33.2263 24.0628 33 23.8055C33.0457 23.6042 33.2165 23.2358 33.3222 23.0449C34.626 20.6913 35.9587 18.3433 37.2695 15.9934L38.6899 13.4415C38.9024 13.0598 39.2577 12.3729 39.5118 12.0392Z" fill="var(--fill-0, white)"/>
<path d="M135.778 12.0425C136.543 12.0093 137.44 12.0316 138.215 12.0337C140.147 15.1054 142.09 18.7236 143.97 21.8808C147.37 21.9275 150.789 21.8568 154.192 21.8876C155.075 21.8955 156.06 21.9141 156.938 21.8537C158.184 21.1672 158.169 19.7183 156.913 19.043C153.621 18.9344 150.082 19.1203 146.77 19.0166C146.676 17.0459 146.722 14.0577 146.769 12.0597C148.106 11.9611 150.605 12.0288 152.031 12.0302C153.551 12.0334 155.244 11.9454 156.692 12.0559C159.145 12.3386 159.769 14.2152 159.525 16.2286C159.434 16.986 159.058 17.379 158.453 17.824C160.141 18.5106 159.946 19.2325 159.998 20.7227C160.05 22.2452 159.124 23.7061 157.407 23.8894C155.731 24.0683 154.007 23.9186 152.321 23.9699C149.114 23.9559 145.884 24.0038 142.673 23.9563C142.235 23.3192 141.622 22.1912 141.218 21.4959L138.527 16.8767C138.113 16.1668 137.679 15.4051 137.249 14.6992C137.172 14.5733 137.08 14.5464 136.952 14.5041C136.72 14.7237 135.631 16.7518 135.383 17.1835C134.102 19.413 132.897 21.7372 131.584 23.9485C128.318 24.0908 124.839 23.8842 121.551 23.9659C120.192 23.9996 118.561 24.0217 117.221 23.9391C117.15 22.9 117.165 12.2454 117.294 12.0396C117.921 12.0219 118.797 12.0122 119.405 12.0582C119.47 14.3259 119.369 16.7109 119.41 18.9903C119.428 19.9443 119.381 20.9126 119.44 21.8665C120.714 21.9154 122.159 21.8864 123.443 21.8866L130.277 21.8798C130.956 20.5688 131.795 19.1415 132.522 17.8408C133.593 15.9016 134.679 13.9688 135.778 12.0425Z" fill="var(--fill-0, white)"/>
<path d="M109.75 12.1032C111.266 12.1044 112.451 12.168 113.664 13.2713C115.42 14.8702 114.794 17.2836 114.911 19.3459C114.98 20.5659 114.586 21.8903 113.629 22.75C112.304 23.9399 110.995 23.8809 109.332 23.8698L103.381 23.8744C101.591 23.868 100.19 23.3553 99.27 21.8204C99.0496 21.4524 98.921 21.0843 98.8463 20.7115C100.786 19.614 101.868 19.0826 104.067 18.3741C107.901 17.3948 110.8 17.2092 114.769 17.944C113.093 16.905 109.65 16.0362 107.694 16.3455C104.056 16.6352 101.185 18.0782 98.8397 20.6777C98.7209 20.0571 98.7479 19.4229 98.7463 18.7528L98.7469 16.6216C98.7538 15.3099 98.9409 14.2105 100.012 13.2309C101.318 12.0348 102.804 12.0985 104.455 12.1066L109.75 12.1032Z" fill="var(--fill-0, white)"/>
</g>
</g>
</svg>
