<svg viewBox="0 0 88.1438 30" width="88" height="30" fill="none" xmlns="http://www.w3.org/2000/svg">
<g id="Frame 793427370">
<g id="Vector">
<path d="M37.6962 20.0529C37.6843 20.0139 37.6611 19.8853 37.6446 19.7672C37.5572 19.1409 37.0471 18.5137 36.3443 18.168C35.6025 17.8033 34.6928 17.6328 32.4263 17.4336C31.9326 17.3902 31.5131 17.3392 31.4941 17.3201C31.4337 17.2597 31.7721 16.9532 32.1421 16.7329C32.3384 16.6161 32.4994 16.5035 32.5 16.4828C32.5006 16.4621 32.3414 16.4343 32.1463 16.4211C31.9002 16.4045 31.5485 16.3056 30.9972 16.0979C30.5602 15.9333 30.0534 15.7681 29.8709 15.7308L29.539 15.6629L29.7432 15.5072C29.8555 15.4215 29.9474 15.3299 29.9474 15.3034C29.9474 15.2338 29.289 15.1298 28.8645 15.1325C28.6642 15.1337 28.3088 15.1688 28.0747 15.2106C27.8407 15.2522 27.6415 15.2797 27.632 15.2716C27.5931 15.2379 28.4917 14.8967 28.8506 14.8089C29.0769 14.7534 29.474 14.7133 29.8055 14.7123C30.4183 14.7103 30.6784 14.769 31.5588 15.1081C31.8366 15.215 32.0791 15.2873 32.0978 15.2686C32.1652 15.2012 31.8323 14.7007 31.603 14.5245C31.2224 14.2321 30.9218 14.1936 29.0394 14.1962C25.8342 14.2004 22.526 14.651 20.4991 15.3593C20.0807 15.5056 19.938 15.5312 19.7096 15.5011C18.6369 15.3596 16.2989 14.1816 13.3491 12.2963C11.8354 11.3287 7.83991 8.57861 7.56102 8.31226C7.52981 8.28249 7.83623 8.41505 8.24198 8.60686C12.9581 10.8365 18.3221 12.3602 23.9039 13.0558C25.9318 13.3086 27.7325 13.4392 30.5292 13.5365C31.6739 13.5763 31.9601 13.6025 32.0752 13.6779C32.2717 13.8067 32.7607 14.4099 33.3266 15.2217L33.8058 15.909L34.1672 15.946C35.3597 16.0681 36.7435 16.7075 37.4835 17.4781C37.9649 17.9794 38.143 18.3716 38.1438 18.9322C38.1442 19.2927 38.1169 19.4164 37.9643 19.7408C37.7825 20.1278 37.7358 20.182 37.6962 20.0529ZM14.1115 17.3416C12.5541 16.4124 10.2362 14.4985 8.24083 12.4942C4.83752 9.07562 2.16715 5.28054 0.641157 1.69363C0.28752 0.862594 -0.027121 0.0292467 0.00185623 0.000413656C0.0125245 -0.0103267 0.108971 0.189414 0.216158 0.444226C0.635318 1.44091 1.65204 3.12022 2.59726 4.37684C3.69292 5.83363 5.33107 7.6016 6.82333 8.93808C9.68493 11.5009 13.1019 13.807 16.8124 15.6798C17.4194 15.9861 17.916 16.2495 17.9158 16.2651C17.9153 16.3005 14.7338 17.6276 14.6504 17.6273C14.6171 17.6272 14.3746 17.4986 14.1115 17.3416Z" fill="var(--fill-0, white)"/>
<path d="M14.7961 20.8048L24.4146 20.8092L24.0879 21.1171C23.5649 21.6101 23.6498 21.5994 20.2335 21.5994H17.293V23.9828H19.8465C21.5062 23.9828 22.4001 24.0026 22.4001 24.0393C22.4001 24.1519 21.9901 24.5463 21.7544 24.6604C21.5241 24.7719 21.4171 24.7772 19.4031 24.7772H17.293V27.9344L17.0779 28.2901C16.5518 29.1602 15.7879 29.7611 14.9522 29.9624L14.7961 30V20.8048ZM34.3203 29.798C33.6942 29.5252 33.1244 29.0613 32.689 28.4699L32.2555 27.8808V20.8459H34.7056V25.4032C34.7056 27.9098 34.6946 29.957 34.6811 29.9526C34.6676 29.9483 34.5052 29.8787 34.3203 29.798ZM25.2968 20.7478H27.649V23.9821H29.3642C30.3075 23.9821 31.0794 24.0152 31.0794 24.0556C31.0794 24.096 30.9139 24.2614 30.7117 24.4231C30.3492 24.7132 30.3261 24.7176 28.9967 24.7491L27.649 24.781V28.7845H25.2968V20.7478Z" fill="var(--fill-0, white)"/>
</g>
<g id="Vector_2">
<path d="M87.6979 20.0457C87.686 20.0067 87.6629 19.8781 87.6465 19.76C87.5594 19.134 87.0512 18.507 86.3511 18.1615C85.6121 17.7969 84.7058 17.6264 82.4478 17.4273C81.956 17.3839 81.5381 17.3329 81.5192 17.3138C81.459 17.2535 81.7962 16.947 82.1648 16.7268C82.3603 16.6101 82.5207 16.4975 82.5212 16.4768C82.5219 16.4561 82.3633 16.4284 82.1689 16.4152C81.9237 16.3986 81.5733 16.2997 81.0241 16.0921C80.5888 15.9276 80.0839 15.7624 79.9021 15.7251L79.5715 15.6572L79.7749 15.5016C79.8868 15.4159 79.9783 15.3243 79.9783 15.2979C79.9783 15.2283 79.3224 15.1244 78.8995 15.127C78.7 15.1283 78.3459 15.1633 78.1127 15.2051C77.8795 15.2467 77.6811 15.2742 77.6716 15.266C77.6329 15.2324 78.5281 14.8913 78.8856 14.8035C79.1111 14.7481 79.5067 14.7079 79.8369 14.7069C80.4474 14.705 80.7065 14.7636 81.5837 15.1026C81.8604 15.2095 82.1019 15.2817 82.1206 15.2631C82.1877 15.1957 81.8561 14.6953 81.6276 14.5192C81.2485 14.227 80.949 14.1885 79.0737 14.191C75.8806 14.1953 72.5849 14.6457 70.5657 15.3538C70.1488 15.5 70.0067 15.5256 69.7791 15.4955C68.7105 15.3541 66.3812 14.1764 63.4426 12.2918C61.9346 11.3246 57.9542 8.5755 57.6763 8.30925C57.6452 8.27949 57.9505 8.412 58.3547 8.60374C63.053 10.8325 68.3968 12.3557 73.9576 13.0511C75.9778 13.3038 77.7717 13.4344 80.5579 13.5315C81.6983 13.5714 81.9834 13.5975 82.0981 13.6729C82.2939 13.8017 82.781 14.4047 83.3448 15.2162L83.8222 15.9032L84.1821 15.9402C85.3702 16.0624 86.7488 16.7015 87.486 17.4718C87.9656 17.9729 88.143 18.3649 88.1438 18.9253C88.1442 19.2857 88.117 19.4094 87.965 19.7337C87.7839 20.1205 87.7374 20.1746 87.6979 20.0457ZM64.2021 17.3353C62.6506 16.4065 60.3414 14.4932 58.3536 12.4897C54.9631 9.07233 52.3028 5.27862 50.7826 1.69302C50.4302 0.862281 50.1168 0.0292361 50.1457 0.000413506C50.1563 -0.0103229 50.2524 0.189346 50.3592 0.444065C50.7767 1.44039 51.7896 3.11909 52.7313 4.37525C53.8228 5.83151 55.4548 7.59884 56.9414 8.93484C59.7922 11.4967 63.1963 13.802 66.8928 15.6741C67.4975 15.9803 67.9922 16.2437 67.992 16.2592C67.9916 16.2945 64.8221 17.6213 64.739 17.6209C64.7058 17.6208 64.4642 17.4923 64.2021 17.3353Z" fill="var(--fill-0, white)"/>
<path d="M64.8841 20.7973L74.4664 20.8016L74.1409 21.1095C73.6199 21.6022 73.7045 21.5916 70.301 21.5916H67.3716V23.9741H69.9155C71.5689 23.9741 72.4595 23.9939 72.4595 24.0306C72.4595 24.1432 72.051 24.5374 71.8162 24.6515C71.5868 24.7629 71.4801 24.7682 69.4737 24.7682H67.3716V27.9243L67.1573 28.2799C66.6332 29.1496 65.8722 29.7503 65.0396 29.9516L64.8841 29.9891V20.7973ZM73.1661 29.7635C73.2905 29.6335 73.5183 29.4457 73.6724 29.3465L73.9524 29.166L75.1422 29.1288C76.4821 29.0869 77.1756 28.9734 78.0082 28.6596C78.7215 28.3907 79.0972 28.1479 79.6406 27.6043C80.2199 27.0249 80.5375 26.4596 80.745 25.6386C80.9386 24.8731 80.9286 24.8132 80.6636 25.1496C80.1351 25.8205 79.4479 26.2558 78.5682 26.4769C77.8905 26.6473 76.7284 26.6084 76.0047 26.3913C74.5494 25.9545 73.6716 25.0844 73.603 24.0102C73.5015 22.4237 74.9747 21.1677 77.4061 20.768C79.4611 20.43 81.5218 21.0802 82.5822 22.401C83.1862 23.1533 83.4015 23.9157 83.3058 24.9637C83.1053 27.1586 81.5753 28.7138 78.8995 29.4424C77.6015 29.7958 76.4845 29.9294 74.4946 29.969L72.94 30L73.1661 29.7635ZM78.9914 25.1599C80.0646 24.9609 80.8262 24.1982 80.8262 23.3227C80.8262 22.8279 80.6879 22.4681 80.3787 22.159C79.893 21.6732 79.1504 21.4449 78.2258 21.497C77.2848 21.55 76.6001 21.897 76.307 22.4695C76.1801 22.7171 76.1623 22.8219 76.1623 23.3204C76.1623 23.8445 76.1755 23.9125 76.33 24.1926C76.6041 24.6891 77.0445 24.9864 77.7258 25.1347C78.173 25.2322 78.5604 25.2398 78.9914 25.1599Z" fill="var(--fill-0, white)"/>
</g>
</g>
</svg>
