<svg viewBox="0 0 93 30" width="93" height="30" fill="none" xmlns="http://www.w3.org/2000/svg">
<g id="Frame 793427369">
<path id="Vector" d="M19.1127 26.5544C16.4738 25.874 14.2951 24.3234 12.5766 21.9027C10.8581 19.482 9.99924 16.7945 10 13.8403V6.7251L19.1127 3.22581L28.2255 6.7251V13.8403C28.2255 16.7953 27.3666 19.4831 25.6488 21.9039C23.9311 24.3246 21.7524 25.8748 19.1127 26.5544Z" fill="var(--fill-0, white)"/>
<path id="Vector_2" d="M46.5859 26.5544C43.947 25.874 41.7683 24.3234 40.0497 21.9027C38.3312 19.482 37.4724 16.7945 37.4731 13.8403V6.7251L46.5859 3.22581L55.6986 6.7251V13.8403C55.6986 16.7953 54.8397 19.4831 53.122 21.9039C51.4042 24.3246 49.2255 25.8748 46.5859 26.5544Z" fill="var(--fill-0, white)"/>
<path id="Vector_3" d="M73.8873 26.7742C71.2484 26.0938 69.0697 24.5432 67.3512 22.1225C65.6326 19.7017 64.7738 17.0143 64.7745 14.0601V6.94488L73.8873 3.44559L83 6.94488V14.0601C83 17.0151 82.1411 19.7029 80.4234 22.1236C78.7056 24.5444 76.5269 26.0946 73.8873 26.7742Z" fill="var(--fill-0, white)"/>
</g>
</svg>
