<svg viewBox="0 0 295 30" width="295" height="30" fill="none" xmlns="http://www.w3.org/2000/svg">
<g id="Frame 793427368">
<g id="Vector">
<path d="M97.9434 18.2794H86.9019V15.5443H101.14C100.766 14.3839 99.5623 13.3064 97.4453 13.3064H87.1094C84.7434 13.3064 83.3736 14.1767 83.3736 16.083V18.1137C83.3736 19.7713 84.7849 20.7245 86.8604 20.7245H98.0264V23.6255H83C83.3736 25.2003 84.5774 26.0291 86.7358 26.0291H97.9849C100.351 26.0291 101.513 25.1174 101.513 23.1696V21.1389C101.513 19.3569 100.143 18.4038 97.9434 18.2794ZM120.483 13.3478H106.868V26.0705H110.728V21.1804H120.774C123.555 21.1804 125.091 20.2272 125.091 17.9893V16.5803C125.049 14.5082 123.306 13.3478 120.483 13.3478ZM121.728 17.4092C121.728 18.3209 121.562 18.8182 120.068 18.8182H110.728L110.77 15.5028H119.902C121.562 15.5028 121.77 16.0001 121.77 16.8704V17.4092H121.728ZM137.917 21.0975H129.698L127.664 23.2525H139.536L141.57 26.0705H146.136L136.298 12.8091L133.974 15.6686L137.917 21.0975ZM153.525 15.5443H167.97C167.596 14.0524 166.143 13.3064 164.068 13.3064H153.275C151.408 13.3064 149.623 14.0524 149.623 16.083V23.211C149.623 25.2417 151.408 25.9876 153.275 25.9876H164.192C166.683 25.9876 167.555 25.2831 167.97 23.584H153.525V15.5443ZM184.906 19.7714V17.6164H173.242V26.0705H190.468V23.6669H177.143V19.7714H184.906ZM173.657 13.3478H191.049V15.5857H173.657V13.3478ZM201.758 13.3478H195.698L202.838 18.5695C203.875 17.865 205.079 17.1191 206.158 16.4974L201.758 13.3478ZM210.558 19.8542C209.521 20.5587 208.483 21.3461 207.487 22.0921L212.883 26.0291H218.985L210.558 19.8542Z" fill="var(--fill-0, white)"/>
<path d="M248 5.92969C214.792 7.83602 199.434 22.0092 195.989 25.366L195.283 26.0291H201.426C218.03 9.41081 241.898 6.46843 248 5.92969Z" fill="var(--fill-0, white)"/>
</g>
</g>
</svg>
