<svg width="197" height="30" viewBox="0 0 197 30" fill="none" xmlns="http://www.w3.org/2000/svg">
<path d="M47.7393 10.6014C48.4313 10.5793 49.1632 10.5939 49.8582 10.5967C50.1241 10.9458 51.1959 12.9745 51.464 13.4634L54.9431 19.8017C58.5394 19.8813 62.1775 19.7571 65.7782 19.8058C66.9523 19.8216 67.2847 19.0627 67.108 17.9883C67.0425 17.5903 66.7068 17.3491 66.3868 17.154C64.5469 17.0709 62.6143 17.1918 60.7927 17.1387C58.5686 17.074 57.6998 15.5031 57.8597 13.4744C57.9295 12.5883 58.1151 11.9216 58.7948 11.3014C59.2061 10.9227 59.7268 10.684 60.2823 10.6196C60.7175 10.571 61.455 10.5905 61.9165 10.5902L92.5749 10.5911C94.1262 10.5863 96.1417 10.27 97.2347 11.5143C97.9865 12.3698 97.9648 13.2986 97.9325 14.353C97.8818 16.002 96.7196 17.1124 95.0893 17.1581C95.0005 17.1609 94.9912 17.192 94.9273 17.2498C94.9097 17.8084 97.8267 21.0965 97.6685 21.646C97.463 21.7983 95.6357 21.7229 95.2553 21.7172C94.1746 20.1989 93.1043 18.6733 92.0442 17.1407L88.0221 17.1388C87.2419 17.1392 86.3253 17.1637 85.5571 17.1127C85.5377 16.4752 85.5484 15.8474 85.5563 15.2103C88.6684 15.086 91.9158 15.3172 95.0317 15.1457C96.0378 15.0902 96.0587 14.0128 95.9158 13.2294C95.6747 12.7759 95.3952 12.566 94.8757 12.5447C94.0581 12.5111 93.2369 12.5281 92.4182 12.5311L88.0065 12.5379L82.0741 12.5329C81.0258 12.5328 79.7131 12.5 78.6854 12.5602C78.5258 15.4277 78.802 18.8074 78.6491 21.7146C78.0781 21.755 77.2617 21.7451 76.6979 21.7158C76.5336 18.8275 76.8246 15.4004 76.6444 12.5456C75.2763 12.4927 73.6341 12.534 72.249 12.534C68.7342 12.5512 65.2194 12.5463 61.7047 12.5193C60.6775 12.5031 59.86 12.5653 59.8209 13.7991C59.7668 15.503 61.33 15.2131 62.5526 15.2019C63.5885 15.1911 64.6244 15.1856 65.6603 15.1856C68.1492 15.1879 69.1462 16.2183 69.1046 18.6753C69.0891 19.5896 68.9078 20.3146 68.2316 20.9833C67.8829 21.3329 67.4346 21.5662 66.948 21.651C66.1574 21.7963 63.4703 21.7409 62.5256 21.741L53.8075 21.7328C53.1137 20.6287 49.1994 13.1226 48.8069 12.9178C48.5325 13.0566 44.492 20.9071 44.0385 21.7207C43.6715 21.7395 42.2078 21.8139 42 21.6023C42.1176 20.9951 47.2022 11.4971 47.7393 10.6014Z" fill="white"/>
<path fill-rule="evenodd" clip-rule="evenodd" d="M142.305 10.6132C143.589 10.5406 145.407 10.591 146.729 10.5923C148.04 10.5965 149.358 10.5698 150.671 10.5883C151.51 10.6001 152.298 10.8752 152.886 11.5052C153.628 12.2983 153.581 13.2962 153.571 14.3075C153.563 15.1203 153.174 15.5145 152.622 16.0184C153.941 16.5529 153.991 17.26 154 18.5234C153.996 20.7977 152.834 21.7573 150.656 21.7398C146.667 21.7078 142.671 21.7875 138.687 21.7298C137.971 20.6196 134.166 13.2394 133.828 12.9611C133.796 12.9347 133.74 12.913 133.703 12.8926C133.284 13.2748 129.511 20.6275 128.955 21.7163C127.343 21.8168 124.792 21.7494 123.105 21.7398C120.984 21.7279 118.343 21.8189 116.274 21.7177C116.234 21.0545 116.262 20.0922 116.262 19.396L116.26 12.3046C116.259 11.8381 116.232 11.0408 116.305 10.6024C116.881 10.5802 117.622 10.5825 118.188 10.6138C118.218 12.6455 118.169 14.7086 118.19 16.7427C118.2 17.7253 118.158 18.8174 118.222 19.7906C119.359 19.8371 120.653 19.8086 121.8 19.8088L127.754 19.8014L132.621 10.6024C133.237 10.569 134.118 10.5926 134.752 10.591C135.212 11.2612 136.082 12.96 136.496 13.7162L139.833 19.7973C142.227 19.8914 144.9 19.7479 147.322 19.8108C147.86 19.8247 150.88 19.829 151.188 19.7624C151.456 19.7054 151.691 19.5442 151.841 19.3147C152.071 18.9592 152.081 18.3887 152 17.9857C151.915 17.5618 151.641 17.3743 151.298 17.1568C148.371 16.9951 145.208 17.3147 142.304 17.1138C142.233 15.2069 142.258 12.531 142.305 10.6132ZM150.722 12.5905C148.854 12.4417 146.941 12.5725 145.063 12.5368C144.811 12.5321 144.547 12.535 144.298 12.5496C144.181 12.889 144.248 14.7289 144.258 15.172C144.832 15.2013 145.44 15.206 146.019 15.1969C147.548 15.1727 149.102 15.2623 150.625 15.1479C150.807 15.1341 150.998 15.021 151.137 14.9103C151.255 14.7582 151.39 14.5976 151.475 14.4263C151.483 14.0567 151.498 13.6735 151.473 13.3054C151.328 13.0646 151.034 12.6154 150.722 12.5905Z" fill="white"/>
<path d="M108.188 10.6598C109.075 10.6591 110.492 10.605 111.313 10.778C111.867 10.8938 112.386 11.1373 112.829 11.4888C113.532 12.0488 114.159 13.133 114.177 13.9904C114.2 15.1305 114.328 17.8526 114.086 18.85C113.953 19.3824 113.706 19.8794 113.361 20.3065C112.605 21.2459 111.756 21.5292 110.619 21.6543L105.998 21.6603C104.356 21.6612 102.607 21.9094 101.276 20.7737C100.518 20.1461 100.206 19.4601 100.074 18.7291C101.483 17.7644 102.843 17.1561 104.451 16.5893C107.619 15.6633 110.952 15.3689 114.195 16.1423C112.359 15.1561 110.144 14.3916 108.027 14.6126C104.931 14.8405 102.316 16.0723 100.274 18.4378C100.203 18.5188 100.134 18.6015 100.065 18.6842C99.931 17.8893 100.004 17.0413 99.9574 16.155C99.8104 13.4035 100.292 10.9395 103.668 10.6645L108.188 10.6598Z" fill="white"/>
</svg>
