<svg width="197" height="35" viewBox="0 0 197 35" fill="none" xmlns="http://www.w3.org/2000/svg">
<path d="M63.5271 4.66238C64.1032 4.5773 64.3456 4.71071 64.6322 5.2068C66.4462 8.34631 68.2612 11.4852 70.075 14.6248L71.9362 17.8479C72.1761 18.2636 72.7491 19.1466 72.896 19.552C73.2463 20.5186 71.9815 21.2189 71.3546 20.0682C71.1224 19.642 70.7598 19.0401 70.5171 18.6133L63.8246 7.01808C62.4113 9.3227 60.9723 11.9488 59.6015 14.3214L48.9617 32.7158L78.6589 32.7126C77.6973 31.0028 76.6719 29.3157 75.7143 27.6066C75.3743 26.577 76.5246 25.8651 77.1636 26.9255C78.3204 28.8454 79.4143 30.8085 80.5425 32.7466C80.8335 33.2464 81.0945 33.78 80.4792 34.1766C80.2998 34.2923 80.0128 34.3215 79.8049 34.3308C77.5051 34.2936 75.2021 34.3114 72.9015 34.3116L50.6552 34.312C49.5429 34.312 48.2935 34.3706 47.1906 34.2093C47.0991 34.2127 46.9347 34.0719 46.9011 33.9841C46.5931 33.1778 47.7826 31.5951 48.1571 30.936L51.5173 25.0996L59.0255 12.0995C60.3475 9.80981 61.6668 7.51237 63.0016 5.22989C63.1736 4.93575 63.2335 4.8361 63.5271 4.66238Z" fill="white"/>
<path d="M62.6088 0.0523668C62.6266 0.0494875 62.6444 0.0466081 62.6621 0.0437288C66.1975 -0.226987 69.6448 0.765825 72.4591 2.83935C75.5772 5.13352 77.655 8.57299 78.2348 12.3999C78.8148 16.2382 77.8342 20.1488 75.5117 23.2596C73.203 26.3636 69.755 28.423 65.927 28.9844C63.2195 29.3786 60.4556 29.0028 57.9518 27.8999C57.4445 27.6817 56.0489 27.1542 55.9653 26.5124C55.9057 26.0544 56.1721 25.6491 56.6718 25.6094L56.7047 25.607C57.0441 25.5794 58.3431 26.3206 58.8158 26.5193C61.9711 27.8483 65.5253 27.869 68.6959 26.5768C72.0514 25.2065 74.4822 22.6728 75.8735 19.3523C76.7478 17.1511 77.003 14.7527 76.6115 12.4169C76.0328 9.01957 74.1282 5.99123 71.3164 3.99787C68.506 1.99932 65.0133 1.20659 61.6152 1.79607C58.2092 2.38763 55.1794 4.31183 53.1962 7.14286C51.1879 10.0081 50.4243 13.5638 51.0793 17.0007C51.1766 17.5125 51.3031 17.9837 51.4518 18.4895C51.5685 18.9037 52.0894 19.8044 51.6989 20.2085C50.6744 21.2686 50.1379 19.7241 49.9293 19.0155C49.6154 17.9489 49.429 17.1199 49.3274 16.0921C48.9139 12.2133 50.0798 8.33146 52.5619 5.32198C55.1228 2.21493 58.6205 0.432046 62.6088 0.0523668Z" fill="white"/>
<path fill-rule="evenodd" clip-rule="evenodd" d="M144.166 17.0491C145.944 15.2978 148.621 14.9151 150.726 16.33C151.867 17.112 152.648 18.3176 152.895 19.6784C153.471 22.7032 151.629 25.3678 148.605 25.9316C148.422 25.9522 148.239 25.9656 148.056 25.9719C146.444 26.0258 145.315 25.4965 144.165 24.4223C144.166 25.2117 144.275 28.6002 144.137 29.1061C144.08 29.3166 143.938 29.5138 143.744 29.6179C143.566 29.7138 143.344 29.7297 143.152 29.6678C142.946 29.601 142.757 29.4538 142.66 29.2573C142.596 29.1289 142.59 28.9816 142.585 28.841C142.542 27.588 142.509 16.3353 142.631 16.0013C142.726 15.7408 142.977 15.6187 143.21 15.5051C144.254 15.5597 144.177 16.2062 144.166 17.0491ZM151.432 20.1606C151.12 18.15 149.244 16.7677 147.231 17.0655C145.198 17.3663 143.799 19.264 144.114 21.294C144.428 23.324 146.336 24.7097 148.364 24.3814C150.373 24.0563 151.743 22.1711 151.432 20.1606Z" fill="white"/>
<path d="M120.102 11.7394C120.153 11.7352 120.203 11.732 120.254 11.7297C122.125 11.6458 124.279 12.812 124.419 14.8512C124.45 15.3063 124.04 15.772 123.588 15.7467C122.645 15.658 122.796 14.4543 122.121 13.8844C120.612 12.5845 117.748 13.5705 118.014 15.7883C118.307 18.2394 121.844 17.7579 123.393 19.2148C125.016 20.7412 125.051 23.1933 123.51 24.764C122.665 25.6234 121.584 25.9263 120.438 25.9973C119.221 25.955 118.509 25.7326 117.501 25.0213C116.814 24.5358 115.703 22.9833 116.357 22.1893C116.501 22.0164 116.707 21.9081 116.93 21.8885C117.731 21.8196 117.755 22.5877 117.991 23.0728C118.74 24.6107 121.362 24.887 122.405 23.4842C123.815 21.5882 122.258 19.832 120.294 19.4933C119.399 19.3247 118.243 18.8374 117.558 18.3011C116.037 17.1108 115.918 14.6083 117.116 13.1564C117.888 12.221 118.93 11.85 120.102 11.7394Z" fill="white"/>
<path d="M127.5 11.7751C127.518 11.7742 127.537 11.7735 127.556 11.7728C128.773 11.731 128.529 12.8249 128.54 13.6898C128.552 14.6885 128.538 15.6936 128.537 16.6927C129.949 15.3223 132.108 15.074 133.766 16.1342C136.076 17.6112 135.616 20.45 135.642 22.7869C135.651 23.5721 135.673 24.3335 135.646 25.114C135.611 26.0833 134.388 26.2519 134.096 25.3746C134.013 24.8893 134.078 24.379 134.054 23.8921C133.983 22.4289 134.191 20.6974 133.997 19.2681C133.929 18.8752 133.784 18.4673 133.563 18.1351C133.178 17.5545 132.578 17.152 131.894 17.0175C131.18 16.8721 130.311 16.9847 129.712 17.4123C128.371 18.355 128.529 20.0596 128.529 21.496C128.533 22.5501 128.526 23.6052 128.554 24.6591C128.563 25.0418 128.545 25.3766 128.299 25.6935C128.14 25.8988 127.889 26.0317 127.63 25.9631C127.228 25.8562 126.93 25.5242 126.951 25.0969C126.944 24.103 126.946 23.1117 126.947 22.1189L126.942 16.5399C126.941 15.2416 126.909 13.6276 126.977 12.3262C126.989 12.1083 127.32 11.8855 127.5 11.7751Z" fill="white"/>
<path d="M109.979 15.52C111.247 15.4362 112.435 15.6816 113.478 16.4399C114.097 16.8425 114.466 17.3785 113.889 18.0328C112.721 19.3573 111.638 20.7961 110.456 22.1053C110.133 22.4001 109.731 22.6114 109.358 22.299C108.583 21.6497 109.695 20.7221 110.176 20.1571L112.357 17.5942C111.962 17.3046 111.507 17.1081 111.025 17.0193C110.122 16.8619 109.194 17.0688 108.444 17.5948C107.623 18.1766 107.066 19.0611 106.897 20.0535C106.69 21.2302 106.983 22.2101 107.657 23.1666C107.869 23.4186 108.143 23.6815 108.413 23.8717C109.629 24.7345 111.256 24.7439 112.483 23.8952C112.87 23.6251 113.203 23.0595 113.681 22.9865C113.89 22.9567 114.102 23.0125 114.27 23.1412C114.426 23.258 114.529 23.4326 114.556 23.626C114.589 23.8758 114.461 24.1105 114.304 24.2946C112.544 26.3556 109.274 26.5335 107.195 24.8903C106.106 24.0274 105.409 22.7629 105.261 21.3813C104.925 18.3273 106.932 15.8562 109.979 15.52Z" fill="white"/>
<path d="M103.718 11.7939C104.203 11.7519 104.976 11.9597 104.851 12.6006C104.661 13.5735 103.211 13.1302 102.548 13.6696C101.838 14.2466 101.681 14.8122 101.502 15.6985C102.399 15.7287 103.313 15.6052 104.195 15.7302C105.056 15.852 105.03 17.0338 104.199 17.1393C103.34 17.2483 102.374 17.1875 101.501 17.1821L101.52 24.8283C101.568 26.3141 100.088 26.2248 99.9404 25.279C99.8687 24.8221 99.9105 23.1957 99.911 22.6779L99.915 17.1816C99.4683 17.189 97.4899 17.3879 98.3298 15.9164C98.4934 15.6299 99.5146 15.6992 99.9031 15.7071C100.135 13.4136 101.405 12.0366 103.718 11.7939Z" fill="white"/>
<path d="M86.3951 11.7813C86.9249 11.7706 87.3795 12.006 87.4007 12.5743C87.4473 13.8214 87.4251 15.0975 87.4253 16.3449L87.429 24.2432C88.2975 24.2458 92.0596 24.0945 92.5798 24.3479C92.7487 24.4301 92.863 24.5686 92.923 24.7454C92.9928 24.9512 92.9841 25.2133 92.879 25.4061C92.7548 25.6341 92.5327 25.7418 92.2952 25.8144C91.2029 25.831 87.0245 25.9574 86.2398 25.7128C86.0208 25.6446 85.9221 25.5428 85.8209 25.3375C85.743 25.1796 85.741 24.9816 85.7346 24.8082C85.6865 23.4865 85.6536 12.6984 85.7992 12.3108C85.9046 12.0304 86.1364 11.9006 86.3951 11.7813Z" fill="white"/>
<path d="M95.2101 15.5571C95.5148 15.5281 95.963 15.5865 96.1013 15.8716C96.3506 16.3851 96.2601 17.6101 96.2606 18.1791L96.2621 21.6671C96.2621 22.8527 96.2893 24.2098 96.2221 25.3939C96.209 25.6245 95.9001 25.8302 95.7186 25.9482C94.9031 26.0081 94.6676 25.6851 94.6673 24.8864C94.6665 21.9809 94.5982 19.039 94.6931 16.1368C94.7014 15.8848 95.0178 15.6762 95.2101 15.5571Z" fill="white"/>
<path d="M139.041 15.5027C139.15 15.5198 139.262 15.5367 139.368 15.5692C139.555 15.6269 139.745 15.7847 139.827 15.9638C139.967 16.2686 139.937 25.2511 139.832 25.4925C139.713 25.7644 139.455 25.8617 139.197 25.963C138.381 25.8983 138.311 25.4362 138.311 24.7372C138.309 21.9992 138.29 19.2601 138.311 16.5224C138.317 15.8996 138.448 15.6884 139.041 15.5027Z" fill="white"/>
<path d="M138.91 12.252C139.441 12.1447 139.961 12.4826 140.078 13.0118C140.195 13.5409 139.867 14.0663 139.34 14.1932C138.99 14.2773 138.622 14.1662 138.378 13.9024C138.133 13.6387 138.05 13.2636 138.161 12.9213C138.271 12.5791 138.558 12.3231 138.91 12.252Z" fill="white"/>
<path d="M95.1363 12.3089C95.4761 12.1934 95.852 12.27 96.1194 12.5093C96.387 12.7486 96.5047 13.1136 96.4275 13.464C96.3502 13.8145 96.09 14.0962 95.7466 14.201C95.2273 14.3595 94.6768 14.072 94.5101 13.5553C94.3434 13.0386 94.6222 12.4837 95.1363 12.3089Z" fill="white"/>
</svg>
