<svg width="113" height="30" viewBox="0 0 113 30" fill="none" xmlns="http://www.w3.org/2000/svg">
<path fill-rule="evenodd" clip-rule="evenodd" d="M21.6133 2.01139C22.6575 2.01106 24.2758 1.96697 25.2893 2.05451C25.7264 2.08792 26.1499 2.22099 26.5262 2.44306C27.6005 3.06813 28.1327 3.84472 28.193 5.06081C28.2432 6.07499 28.2339 7.06062 28.2345 8.07505L28.2353 20.2233C28.2348 21.4137 28.236 22.5845 28.2021 23.7747C28.1523 25.5215 27.1573 26.5305 25.4393 26.9424C24.765 27.0296 23.1344 26.9909 22.4022 26.9908L16.6987 26.9876L9.8366 26.9929C8.58424 26.994 7.26548 27.0253 6.01831 26.9468C5.43537 26.9101 4.95536 26.7107 4.46785 26.3901C3.75616 25.9265 3.2632 25.2 3.10014 24.3741C2.96923 23.7162 3.00598 21.9169 3.00554 21.1612L3.00581 8.82041C3.00625 7.56663 2.97447 6.31111 3.05512 5.06028C3.15787 3.46583 4.31593 2.33736 5.88165 2.05451C6.7448 1.97191 8.28711 2.01246 9.19562 2.01272L15.092 2.01536L21.6133 2.01139ZM18.9818 5.95112C19.9065 7.30933 20.4463 8.94426 20.4463 10.7037C20.4463 15.4155 16.5764 19.2353 11.8027 19.2354C10.0202 19.2354 8.36385 18.7026 6.98782 17.7899C8.41343 20.8794 11.5689 23.0272 15.2327 23.0272C20.2337 23.0272 24.2879 19.0255 24.2879 14.0892C24.2879 10.4729 22.1118 7.35828 18.9818 5.95112Z" fill="white"/>
<path fill-rule="evenodd" clip-rule="evenodd" d="M60.6745 3.82628C63.3762 3.40767 65.9074 5.23597 66.3201 7.90354C66.7333 10.5712 64.8695 13.0616 62.1647 13.4575C59.4755 13.851 56.9701 12.0255 56.5599 9.3739C56.1496 6.72225 57.989 4.24231 60.6745 3.82628ZM64.5067 8.39578C64.3725 6.71152 62.8719 5.45848 61.1665 5.60557C59.4817 5.751 58.2302 7.20939 58.363 8.8732C58.496 10.537 59.9629 11.7842 61.6502 11.6676C63.3581 11.5495 64.6409 10.0801 64.5067 8.39578Z" fill="white"/>
<path fill-rule="evenodd" clip-rule="evenodd" d="M50.212 3.82863C52.8974 3.40601 55.4236 5.20599 55.8616 7.85432C56.2995 10.5026 54.4842 13.0018 51.8019 13.4435C49.106 13.8873 46.5577 12.0851 46.1175 9.42333C45.6773 6.76153 47.5129 4.25342 50.212 3.82863ZM54.0566 8.40686C53.9288 6.72481 52.4378 5.46688 50.734 5.60369C49.0456 5.7393 47.7849 7.19434 47.9115 8.86127C48.0382 10.5281 49.5046 11.7816 51.1947 11.6673C52.9 11.552 54.1842 10.0888 54.0566 8.40686Z" fill="white"/>
<path d="M83.8568 4.01734L85.7826 4.0251L85.7738 13.2971L83.7869 13.3022L83.785 9.77005C83.7875 8.97865 83.7819 8.18718 83.7681 7.3959C83.2126 8.02309 81.2968 10.6211 80.8598 10.8973C80.5826 10.8335 78.3379 7.77214 77.9128 7.26642C77.8853 9.25799 77.9078 11.3017 77.9065 13.2976L75.9089 13.2971L75.9071 4.0211L77.8441 4.0203C78.1312 4.52724 80.4478 7.54367 80.8935 7.98557C81.0583 7.81821 81.1682 7.67777 81.3036 7.48707C82.1326 6.32072 83.0465 5.19564 83.8568 4.01734Z" fill="white"/>
<path d="M35.3986 15.3953L37.232 15.3948C38.1481 16.2198 39.6159 18.7145 40.4144 19.376C40.502 19.27 40.565 19.1674 40.6425 19.0558C41.5032 17.815 42.4611 16.6388 43.3183 15.3949L45.2667 15.3966L45.2628 24.678L43.2691 24.6694L43.2686 21.0424L43.2737 18.7121C43.0244 19.0956 40.5891 22.1211 40.3312 22.2805C39.9568 22.0892 37.838 19.1659 37.3297 18.5517L37.3267 24.6742L35.4003 24.6838L35.3986 15.3953Z" fill="white"/>
<path d="M35.4004 4.01976L37.2308 4.01958C38.3283 5.11571 39.3609 6.9693 40.3946 8.00069C40.7003 7.63307 41.1093 7.01852 41.4192 6.60655C42.0586 5.75644 42.7214 4.89525 43.3201 4.01946L45.2663 4.02087L45.2643 13.2991L43.2688 13.2974L43.2703 7.35231C42.8193 7.89529 40.6913 10.6762 40.3428 10.9144C40.0517 10.831 37.7799 7.70527 37.3276 7.20047V13.2983L35.4003 13.3023L35.4004 4.01976Z" fill="white"/>
<path d="M77.6587 15.3943L79.4921 15.3959C79.9385 15.8028 80.0645 16.094 80.4185 16.5268C81.0827 17.3409 81.8923 18.6143 82.6108 19.3458C83.2544 18.6321 83.9723 17.496 84.5859 16.7162C84.938 16.269 85.1783 15.7934 85.6178 15.396L87.463 15.4L87.4624 24.6684C86.8238 24.6835 86.1678 24.6726 85.5279 24.6691V20.9809L85.5304 18.697C84.5441 19.7712 83.5971 21.207 82.5528 22.3819C81.5172 21.1755 80.5902 19.8037 79.5851 18.551V24.675L77.6618 24.6842L77.6587 15.3943Z" fill="white"/>
<path fill-rule="evenodd" clip-rule="evenodd" d="M96.9242 4.01711C97.9561 4.03701 98.9843 3.94593 100.002 4.13085C101.782 4.45433 102.644 5.93845 102.311 7.63944C102.132 8.55959 101.484 9.12425 100.736 9.61313C101.366 10.5717 102.293 12.2856 102.845 13.2931L100.869 13.3032C100.616 13.3223 100.397 12.8347 100.296 12.6345C99.8375 11.7215 99.2282 10.829 98.7681 9.92498L97.391 9.9308L97.3918 13.2958L95.411 13.3003C95.3673 10.2517 95.4048 7.07747 95.4129 4.02055C95.9141 4.01926 96.4254 4.00892 96.9242 4.01711ZM99.9348 5.99848C99.2694 5.53785 98.1702 5.65659 97.3918 5.66891L97.3929 8.24752C98.1863 8.25947 99.4243 8.39272 100.019 7.88965C100.478 7.2645 100.655 6.49717 99.9348 5.99848Z" fill="white"/>
<path d="M67.2133 4.01989L68.6278 4.02451C69.0704 4.42378 69.9643 5.65302 70.3751 6.19286L72.9413 9.52929L72.9482 4.01946L74.8652 4.02069C74.8658 6.32068 74.8821 10.7325 74.8509 13.1892C74.8203 13.234 74.7947 13.2717 74.7741 13.3023L73.3608 13.3026C73.2085 12.9898 72.2016 11.7159 71.9288 11.3545L69.1228 7.5995L69.1234 13.2951L67.2114 13.2975L67.2133 4.01989Z" fill="white"/>
<path fill-rule="evenodd" clip-rule="evenodd" d="M89.3232 4.01231C90.1547 4.0364 91.0781 4.0187 91.9171 4.01734C92.1094 4.83608 92.5288 5.80652 92.8003 6.62716C93.5301 8.86041 94.2942 11.0826 95.092 13.2928C94.3792 13.2998 93.6493 13.3162 92.9383 13.2812C92.8622 12.9237 92.4563 11.6504 92.2384 11.3797L92.0356 11.3596C90.9731 11.3651 89.9113 11.3641 88.8489 11.3569C88.6267 12.0319 88.4106 12.5767 88.3038 13.2828C87.6515 13.3251 86.7633 13.2991 86.0942 13.2986C86.3195 12.547 86.6446 11.7547 86.908 11.0075C87.7232 8.69481 88.4336 6.29468 89.3232 4.01231ZM90.6054 6.20846C90.1903 7.26336 89.6922 8.64952 89.4574 9.73688L90.6778 9.73609L91.7829 9.73874C91.7048 9.46691 90.6597 6.27979 90.6054 6.20846Z" fill="white"/>
<path d="M68.9955 15.3972L70.9774 15.398L70.9681 19.448C70.9668 20.3457 70.7877 21.7638 71.4344 22.4466C72.1666 23.2205 73.5031 23.2513 74.2516 22.5034C74.8921 21.8635 74.7522 20.0639 74.7516 19.1663L74.7441 15.3945L76.7211 15.3975L76.7205 17.1618C76.7142 18.5784 76.8378 20.3274 76.6949 21.7063C76.3709 24.8267 72.146 25.7888 70.0386 23.7204C69.5985 23.2851 69.2832 22.7423 69.1253 22.1475C68.9374 21.4141 68.9936 19.9574 68.9942 19.1509L68.9955 15.3972Z" fill="white"/>
<path d="M62.3298 15.3987L68.6484 15.398L68.6509 17.0219L64.2687 17.0274C64.2463 17.7129 64.265 18.4708 64.2675 19.1616L68.4199 19.1612L68.4181 20.8362L64.2719 20.8381C64.245 21.5309 64.2637 22.2764 64.2694 22.9734L68.6434 22.9748C68.654 23.532 68.6459 24.1169 68.6465 24.6766L62.3305 24.6686L62.3298 15.3987Z" fill="white"/>
<path d="M51.9287 15.3951L53.8459 15.3973L53.844 17.1003L53.852 19.6468C53.8547 21.0614 54.01 22.5322 52.9116 23.6711C51.0208 25.6685 46.9741 24.987 46.31 22.2029C46.1058 21.3468 46.1823 20.0009 46.1851 19.0803L46.1867 15.3967L48.1207 15.3996L48.1122 19.2301C48.1102 20.1795 47.9342 21.7655 48.6216 22.4683C48.9921 22.8412 49.497 23.0542 50.0261 23.0611C52.2165 23.0725 51.9424 20.5566 51.9362 19.1097L51.9287 15.3951Z" fill="white"/>
<path d="M57.6445 15.2411C59.4209 15.1164 60.8953 15.9558 61.6001 17.5675C61.2405 17.7748 60.4858 18.0327 60.0202 18.2596C59.5882 17.6278 59.1668 17.0991 58.3647 16.9238C57.7715 16.7942 56.831 16.917 56.6897 17.6451C56.6066 18.0737 56.7587 18.315 56.992 18.6604C58.2409 19.303 59.718 19.2379 60.8186 20.2763C61.881 21.2785 61.8623 22.7451 60.861 23.7825C60.0807 24.5901 59.2218 24.7951 58.1411 24.8239C56.2371 24.7551 55.1342 23.8871 54.378 22.2315C54.8294 21.9679 55.4563 21.7089 55.9462 21.4918C57.4502 24.4012 60.7574 22.7861 59.3017 21.5113C58.3922 20.7145 54.9578 20.6643 54.7121 18.4418C54.4837 16.3758 55.8911 15.4486 57.6445 15.2411Z" fill="white"/>
<path d="M105.768 3.901C107.743 3.71756 109.183 4.3902 110 6.2085C109.527 6.45415 108.904 6.66445 108.386 6.90462C107.982 6.09159 107.236 5.40663 106.313 5.50124C104.676 5.66903 104.588 7.21599 106.276 7.60954C107.149 7.81299 108.344 8.22964 109.059 8.74065C110.463 9.74506 110.194 11.8297 108.888 12.7859C108.238 13.2641 107.653 13.3526 106.879 13.3841C104.71 13.4056 103.746 12.7568 102.787 10.8587C103.349 10.5819 103.849 10.3357 104.432 10.0996C104.881 11.2153 105.979 11.917 107.219 11.7106C107.457 11.6709 107.83 11.5181 107.939 11.2872C108.409 10.2977 107.624 9.9354 106.791 9.70274C105.941 9.3772 104 8.92877 103.553 8.03684C102.447 5.8258 103.663 4.35861 105.768 3.901Z" fill="white"/>
</svg>
