<svg width="295" height="30" viewBox="0 0 295 30" fill="none" xmlns="http://www.w3.org/2000/svg">
<path d="M106.806 16.5832H97.3438V14.2393H109.545C109.225 13.2449 108.193 12.3215 106.379 12.3215H97.5216C95.494 12.3215 94.3201 13.0673 94.3201 14.701V16.4412C94.3201 17.8617 95.5296 18.6785 97.3082 18.6785H106.877V21.1645H94C94.3201 22.514 95.3517 23.2243 97.2015 23.2243H106.841C108.869 23.2243 109.865 22.443 109.865 20.7739V19.0337C109.865 17.5066 108.691 16.6897 106.806 16.5832ZM126.121 12.357H114.454V23.2598H117.762V19.0692H126.37C128.754 19.0692 130.07 18.2524 130.07 16.3346V15.1271C130.034 13.3514 128.54 12.357 126.121 12.357ZM127.189 15.8374C127.189 16.6187 127.046 17.0449 125.766 17.0449H117.762L117.798 14.2038H125.623C127.046 14.2038 127.224 14.6299 127.224 15.3757V15.8374H127.189ZM141.062 18.9982H134.018L132.275 20.8449H142.449L144.192 23.2598H148.105L139.674 11.8954L137.682 14.3458L141.062 18.9982ZM154.437 14.2393H166.815C166.495 12.9608 165.25 12.3215 163.472 12.3215H154.223C152.622 12.3215 151.093 12.9608 151.093 14.701V20.8094C151.093 22.5496 152.622 23.1888 154.223 23.1888H163.578C165.713 23.1888 166.46 22.5851 166.815 21.129H154.437V14.2393ZM181.329 17.8617V16.015H171.333V23.2598H186.095V21.2H174.677V17.8617H181.329ZM171.689 12.357H186.593V14.2748H171.689V12.357ZM195.771 12.357H190.577L196.696 16.8318C197.585 16.2281 198.617 15.5888 199.542 15.0561L195.771 12.357ZM203.312 17.9327C202.423 18.5365 201.534 19.2112 200.68 19.8505L205.304 23.2243H210.533L203.312 17.9327Z" fill="white"/>
<path d="M235.398 6C206.941 7.63364 193.779 19.7794 190.826 22.6561L190.222 23.2243H195.486C209.715 8.98318 230.169 6.46168 235.398 6Z" fill="white"/>
</svg>
